<mxfile host="app.diagrams.net" modified="2023-12-26T08:59:18.963Z" agent="Mozilla/5.0 (Windows NT 10.0; Win64; x64) AppleWebKit/537.36 (KHTML, like Gecko) Chrome/120.0.0.0 Safari/537.36" version="22.1.11" etag="Y_cS-xJ6wCME5Yr7qFXM" type="github">
  <diagram name="第 1 页" id="Pw-oEpUDD9D5dCM9wwAf">
    <mxGraphModel>
      <root>
        <mxCell id="0" />
        <mxCell id="1" parent="0" />
      </root>
    </mxGraphModel>
  </diagram>
</mxfile>
